<svg width="115.01mm" height="37.042mm" version="1.1" viewBox="0 0 115.01 37.042" xmlns="http://www.w3.org/2000/svg">
<path d="m14.833 1.8132v1.8087h-5.4865v13.374h-2.2389v-13.374h-5.4865v-1.8087z"/>
<path d="m15.776 1.8132h2.2279v6.2735h8.4681v-6.2735h2.2279v15.183h-2.2279v-7.1003h-8.4681v7.1003h-2.2279z"/>
<path d="m31.196 1.8132h11.871v1.8604h-9.7206v4.6095h8.989v1.757h-8.989v5.147h9.8868v1.8087h-12.037z"/>
<path d="m71.32 26.048q1.3161 0 2.0473-0.36174 1.149-0.56844 1.149-2.0464 0-1.4883-1.2221-2.005-0.6894-0.28939-2.0473-0.28939h-3.7081v4.7026zm0.69984 7.0073q1.9115 0 2.7262-1.0955 0.51183-0.69248 0.51183-1.6743 0-1.6536-1.4937-2.2531-0.79384-0.32039-2.0995-0.32039h-4.1259v5.3433zm-6.5179-13.426h6.591q2.6949 0 3.8334 1.5916 0.6685 0.94051 0.6685 2.1704 0 1.4366-0.82517 2.3564-0.42826 0.48576-1.2326 0.88884 1.1803 0.44442 1.7652 1.0025 1.0341 0.99219 1.0341 2.7388 0 1.4676-0.92963 2.6562-1.3892 1.7777-4.4184 1.7777h-6.4866z"/>
<path d="m86.488 28.59-2.3488-6.7076-2.4963 6.7076zm-3.4442-8.9607h2.3699l5.614 15.183h-2.2962l-1.5694-4.5475h-6.1196l-1.6747 4.5475h-2.1487z"/>
<path d="m99.918 19.629v1.8087h-4.895v13.374h-2.1276v-13.374h-5.1075v-1.8087z"/>
<path d="m100.71 19.629h2.3103v6.2735h7.518v-6.2735h2.1171v15.183h-2.1171v-7.1004h-7.518v7.1004h-2.3103z"/>
<path d="m1.2826 29.96c-0.06951 3.7253 3.3831 5.3763 7.0444 5.3763 4.5186 0 6.8821-2.0743 6.8821-4.8472 0-3.4078-3.6844-4.1487-4.9125-4.4027-4.1478-0.9525-4.9357-1.1218-4.9357-2.286 0-1.27 1.344-1.7145 2.5026-1.7145 1.7611 0 3.1514 0.48684 3.2673 2.286h3.5222c0-3.4925-3.1746-4.8683-6.6273-4.8683-2.9892 0-6.187 1.4605-6.187 4.572 0 2.794 2.4794 3.7465 4.9357 4.2968 2.4099 0.61383 4.9125 0.84667 4.9125 2.4977 0 1.5452-1.9465 1.8838-3.2209 1.8838-1.9465 0-3.6612-0.78317-3.6612-2.794z"/>
<path d="m15.984 35.336h3.6297v-6.8299h6.6814v6.8299h3.6297v-15.833h-3.6297v6.076h-6.6814v-6.076h-3.6297z"/>
<path d="m35.194 27.484c0-2.6458 1.2179-5.1858 4.4579-5.1858s4.4579 2.54 4.4579 5.1858c0 2.5188-1.2179 5.0588-4.4579 5.0588s-4.4579-2.54-4.4579-5.0588zm-3.6077 0c0 4.3603 3.0102 7.8528 8.0655 7.8528s8.0655-3.4925 8.0655-7.8528c0-4.4873-3.0102-7.9798-8.0655-7.9798s-8.0655 3.4925-8.0655 7.9798z"/>
<path d="m52.863 22.209h2.8169c1.6624 0 3.1863 0.35482 3.1863 2.3728 0 2.0179-1.5239 2.3727-3.1863 2.3727h-2.8169zm-3.625 13.128h3.625v-5.6768h3.8098c4.133 0 5.703-2.5058 5.703-5.0781s-1.5701-5.0781-5.7031-5.0781h-7.4348z"/>
<path d="m48.997 4.0802h2.879c1.6991 0 3.2566 0.35042 3.2566 2.3435 0 1.9931-1.5848 2.6654-3.2566 2.3435h-2.879zm-3.705 12.966h3.705v-5.6069h3.8938c4.2241 0 5.8288-2.4749 5.8288-5.0156 0-2.5406-1.6047-5.0156-5.8288-5.0156h-7.5987z"/>
<path d="m60.068 17.046h3.7588v-15.638h-3.7588z"/>
<path d="m72.165 5.263h0.0462l2.0824 5.7383h-4.2805zm-8.0751 11.783h3.6789l1.2957-3.4824h6.1778l1.2494 3.4824h3.7715l-6.1778-15.638h-3.7252z"/>
<path d="m80.988 17.046h3.4359v-10.469h0.0467l6.942 10.469h3.6697v-15.638h-3.4359v10.491h-0.0467l-6.9653-10.491h-3.6463z"/>
<path d="m100.17 9.2899c0-2.6133 1.2682-5.1221 4.6419-5.1221 3.3738 0 4.6419 2.5088 4.6419 5.1221 0 2.4879-1.2682 4.9967-4.6419 4.9967-3.3738 0-4.6419-2.5088-4.6419-4.9967zm-3.7566 0c0 4.3067 3.1345 7.7563 8.3985 7.7563s8.3985-3.4496 8.3985-7.7563c0-4.4322-3.1345-7.8817-8.3985-7.8817s-8.3985 3.4496-8.3985 7.8817z"/>
</svg>
