<?xml version="1.0" encoding="UTF-8" standalone="no"?>
<svg
   xmlns:dc="http://purl.org/dc/elements/1.1/"
   xmlns:cc="http://creativecommons.org/ns#"
   xmlns:rdf="http://www.w3.org/1999/02/22-rdf-syntax-ns#"
   xmlns:svg="http://www.w3.org/2000/svg"
   xmlns="http://www.w3.org/2000/svg"
   xmlns:sodipodi="http://sodipodi.sourceforge.net/DTD/sodipodi-0.dtd"
   xmlns:inkscape="http://www.inkscape.org/namespaces/inkscape"
   inkscape:version="1.0 (4035a4fb49, 2020-05-01)"
   sodipodi:docname="favicon.svg"
   viewBox="0 0 81.919998 81.919998"
   height="81.919998"
   width="81.919998"
   id="svg62"
   version="1.1">
  <metadata
     id="metadata68">
    <rdf:RDF>
      <cc:Work
         rdf:about="">
        <dc:format>image/svg+xml</dc:format>
        <dc:type
           rdf:resource="http://purl.org/dc/dcmitype/StillImage" />
        <dc:title></dc:title>
      </cc:Work>
    </rdf:RDF>
  </metadata>
  <defs
     id="defs66" />
  <sodipodi:namedview
     inkscape:pagecheckerboard="true"
     inkscape:current-layer="g70"
     inkscape:window-maximized="1"
     inkscape:window-y="27"
     inkscape:window-x="0"
     inkscape:cy="53.856471"
     inkscape:cx="32.40638"
     inkscape:zoom="11.090103"
     showgrid="false"
     id="namedview64"
     inkscape:window-height="1024"
     inkscape:window-width="1920"
     inkscape:pageshadow="2"
     inkscape:pageopacity="0"
     guidetolerance="10"
     gridtolerance="10"
     objecttolerance="10"
     borderopacity="1"
     bordercolor="#666666"
     pagecolor="#ffffff" />
  <g
     id="g70"
     inkscape:label="Image"
     inkscape:groupmode="layer">
    <rect
       y="0"
       x="0"
       height="81.919998"
       width="81.919998"
       id="rect177"
       style="fill:#ffffff" />
    <g
       transform="translate(-6.5499369,4.5543907)"
       id="g87">
      <g
         id="g77">
        <path
           id="path74"
           d="m 11.647026,47.163292 c 0.0015,-15.857005 0.124938,-25.795133 0.336503,-27.099082 0.801364,-4.939073 2.947993,-9.118678 6.515656,-12.6863421 10.42799,-10.42799 27.613065,-8.556434 35.564172,3.8731491 1.471408,2.300181 2.447177,4.707107 3.175212,7.832275 1.506637,6.467416 4.22193,9.726243 11.117414,13.342848 2.414859,1.266566 5.212555,2.922566 6.217105,3.68 3.549014,2.675965 6.605007,7.252534 7.971014,11.937152 0.471465,1.616851 0.58128,3.675734 0.69551,13.039999 l 0.135651,11.12 H 47.509936 11.644609 l 0.0024,-25.039999 z m 66.557581,14.799999 v -5.119999 h -1.279999 -1.28 v 3.839999 3.84 h -1.28 -1.28 v -3.84 -3.839999 h -1.28 -1.28 v 3.839999 3.84 h -1.28 -1.28 v -3.84 -3.839999 h -1.28 -1.28 v 3.839999 3.84 h -1.28 -1.28 v -3.84 -3.839999 h -2.56 -2.56 v 3.839999 3.84 h -1.28 -1.28 v -3.84 -3.839999 h -1.28 -1.28 v 3.839999 3.84 h -1.28 -1.28 v -3.84 -3.839999 h -2.56 -2.56 v 3.839999 3.84 h -1.28 -1.28 v -3.84 -3.839999 h -1.28 -1.28 v 3.839999 3.84 h -1.28 -1.28 v -3.84 -3.839999 h -1.28 -1.28 v 3.839999 3.84 h -1.28 -1.28 v -3.84 -3.839999 h -2.56 -2.559999 v 3.839999 3.84 h -1.28 -1.28 v -3.84 -3.839999 h -1.28 -1.28 v 3.839999 3.84 h -1.28 -1.28 v -3.84 -3.839999 h -1.28 -1.28 v 5.119999 5.12 h 30.719999 30.719999 z"
           style="fill:#000000;stroke-width:0.32" />
      </g>
    </g>
  </g>
</svg>
